<svg xmlns="http://www.w3.org/2000/svg">
  <symbol id="trash" viewBox="0 0 24 24">
    <path d="M22,4H17V2a2,2,0,0,0-2-2H9A2,2,0,0,0,7,2V4H2V6H4V21a3,3,0,0,0,3,3H17a3,3,0,0,0,3-3V6h2ZM9,2h6V4H9Zm9,19a1,1,0,0,1-1,1H7a1,1,0,0,1-1-1V6H18Z"/><rect x="9" y="10" width="2" height="8"/><rect x="13" y="10" width="2" height="8"/>
  </symbol>
  <symbol id="info" viewBox="0 0 24 24">
   <path d="M12,0A12,12,0,1,0,24,12,12.013,12.013,0,0,0,12,0Zm0,22A10,10,0,1,1,22,12,10.011,10.011,0,0,1,12,22Z"/><path d="M12,10H11a1,1,0,0,0,0,2h1v6a1,1,0,0,0,2,0V12A2,2,0,0,0,12,10Z"/><circle cx="12" cy="6.5" r="1.5"/>
  </symbol>
</svg>