<svg xmlns="http://www.w3.org/2000/svg">
  <symbol id="meat" viewBox="0 0 24 24">
    <path d="M17.5,24a5.772,5.772,0,0,1-4.719-2.238A4.341,4.341,0,0,0,9,20c-4.794,0-9-4.673-9-10A10.011,10.011,0,0,1,10,0c9.772,0,14,11.588,14,17.5A6.508,6.508,0,0,1,17.5,24ZM10,2C-.468,2.379-.38,17.105,9,18a6.3,6.3,0,0,1,5.242,2.4C16.578,23.651,22.1,21.573,22,17.5,22,12.938,18.547,2,10,2ZM6.707,13.707l7-7a1,1,0,0,0-1.414-1.414l-7,7A1,1,0,0,0,6.707,13.707Zm4,2,6-6a1,1,0,0,0-1.414-1.414l-6,6A1,1,0,0,0,10.707,15.707Zm4,2,4-4a1,1,0,0,0-1.414-1.414l-4,4A1,1,0,0,0,14.707,17.707Zm4,2,1-1a1,1,0,0,0-1.414-1.414l-1,1A1,1,0,0,0,18.707,19.707Zm-13-11,3-3A1,1,0,0,0,7.293,4.293l-3,3A1,1,0,0,0,5.707,8.707Z"/>
  </symbol>
  <symbol id="fish" viewBox="0 0 24 24">
    <path d="M6,19a1,1,0,0,1-2,0A1,1,0,0,1,6,19ZM23.73,7.625A2.482,2.482,0,0,1,21.5,9H16.981c-.02,1.061-.063,2.071-.149,3H17.2a2.746,2.746,0,0,1,2.765,3.188A3.288,3.288,0,0,1,16.729,18H15.4C13.6,21.889,8,24,3.987,24A4,4,0,0,1,.009,19.743,16.833,16.833,0,0,1,2,12.133V11.6A7.708,7.708,0,0,1,8.317,4.046a3.115,3.115,0,0,1,2.537.693A3.213,3.213,0,0,1,12,7.168c.93-.086,1.941-.129,3-.149V2.5a2.5,2.5,0,0,1,4-2,4.861,4.861,0,0,1,1.833,2.663A4.861,4.861,0,0,1,23.5,5,2.5,2.5,0,0,1,23.73,7.625ZM4.385,9.541A13.235,13.235,0,0,1,10,7.432V7.2a1.218,1.218,0,0,0-.435-.933,1.085,1.085,0,0,0-.9-.253A5.615,5.615,0,0,0,4.385,9.541ZM8.783,21.2A8.037,8.037,0,0,0,2.8,15.222,20.059,20.059,0,0,0,2,19.88,2,2,0,0,0,4.12,22,20.03,20.03,0,0,0,8.783,21.2ZM14.992,9.008c-6.239.107-9.639,1.264-11.4,4.362a10.045,10.045,0,0,1,7.04,7.039C13.728,18.646,14.885,15.247,14.992,9.008ZM16.568,14a18.72,18.72,0,0,1-.445,2h.606a1.281,1.281,0,0,0,1.261-1.094A.754.754,0,0,0,17.2,14ZM21.9,6.189a2.99,2.99,0,0,0-2.06-1.2,1,1,0,0,1-.821-.821,2.988,2.988,0,0,0-1.2-2.06.5.5,0,0,0-.537-.049A.477.477,0,0,0,17,2.5V7h4.5a.477.477,0,0,0,.445-.273A.5.5,0,0,0,21.9,6.189Z"/>
  </symbol>
  <symbol id="vegetable" viewBox="0 0 24 24">
    <path d="M23,5H20.414l2.293-2.293a1,1,0,0,0-1.414-1.414L19,3.586V1a1,1,0,0,0-2,0V5.456A10.139,10.139,0,0,0,14.146,3.33,3.765,3.765,0,0,0,9.723,4.378C7.965,6.136,3.065,15.121.3,20.319A2.511,2.511,0,0,0,3.681,23.7c5.2-2.764,14.183-7.665,15.941-9.423a3.766,3.766,0,0,0,1.049-4.422A10.167,10.167,0,0,0,18.544,7H23A1,1,0,0,0,23,5Zm-4.792,7.863A16.072,16.072,0,0,1,15.915,14.5l-2.208-2.207a1,1,0,0,0-1.414,1.414l1.87,1.869c-2.746,1.643-6.689,3.842-11.421,6.358a.5.5,0,0,1-.676-.676c1.522-2.861,2.923-5.424,4.16-7.618l2.067,2.067a1,1,0,0,0,1.414-1.414L7.251,11.837c1.09-1.889,2.006-3.4,2.709-4.463l2.333,2.333a1,1,0,0,0,1.414-1.414L11.174,5.76c.847-.789,1.366-.922,2.183-.592a11.623,11.623,0,0,1,3.008,2.466,11.628,11.628,0,0,1,2.467,3.009C19.081,11.223,19.178,11.894,18.208,12.863Z"/>
  </symbol>
  <symbol id="specie" viewBox="0 0 24 24">
    <path d="m21.908,17.507l-1.908-9.606v-1.901C20,0,14.394,0,12,0S4,0,4,6v1.901l-1.924,9.686c-.269,1.599.177,3.226,1.225,4.464,1.047,1.238,2.578,1.948,4.199,1.948h8.999c1.634,0,3.172-.719,4.22-1.973,1.048-1.254,1.482-2.895,1.189-4.521ZM9,2.253v.747c0,.552.448,1,1,1s1-.448,1-1v-.977c.318-.014.647-.023,1-.023s.682.009,1,.023v.977c0,.552.448,1,1,1s1-.448,1-1v-.747c2.161.461,3,1.597,3,3.747v1H6v-1c0-2.15.839-3.286,3-3.747Zm10.184,18.491c-.667.798-1.646,1.255-2.686,1.255H7.5c-1.032,0-2.006-.452-2.672-1.24s-.95-1.823-.784-2.812l1.777-8.948h12.358l1.764,8.879c.185,1.023-.092,2.068-.759,2.866Zm-5.184-2.245c0,.828-.672,1.5-1.5,1.5s-1.5-.672-1.5-1.5.672-1.5,1.5-1.5,1.5.672,1.5,1.5Zm3-4c0,.828-.672,1.5-1.5,1.5s-1.5-.672-1.5-1.5.672-1.5,1.5-1.5,1.5.672,1.5,1.5Z"/>
  </symbol>
  <symbol id="legume" viewBox="0 0 24 24">
    <path d="m23.999.972l-.028-.972h-.972C22.597,0,13.082.075,6.579,6.579.077,13.083,0,22.597,0,22.999v.972s1.071.03,1.186.03c1.482,0,9.941-.287,16.234-6.58C24.194,10.647,24.01,1.364,23.999.972Zm-7.992,15.035c-4.901,4.901-11.448,5.798-13.949,5.959.212-2.546,1.215-9.251,5.936-13.973,4.723-4.723,11.43-5.724,13.975-5.936-.156,2.497-1.044,9.032-5.961,13.95Zm-8.007-2.007c0-1.105.895-2,2-2s2,.895,2,2-.895,2-2,2-2-.895-2-2Zm4-4c0-1.105.895-2,2-2s2,.895,2,2-.895,2-2,2-2-.895-2-2Zm-4,8c0,1.105-.895,2-2,2s-2-.895-2-2,.895-2,2-2,2,.895,2,2Zm8-12c0-1.105.895-2,2-2s2,.895,2,2-.895,2-2,2-2-.895-2-2Z"/>
  </symbol>
  <symbol id="oil" viewBox="0 0 24 24">
    <path d="M19.211,12.32c4.205-2.912.264-9.264-4.211-6.77V3a3,3,0,0,0-3-3H8A1,1,0,0,0,8,2H9V8c0,.661-1.212,1.68-2.281,2.579C4.976,12.044,3,13.7,3,16c.089,3.525,3.167,8.02,6.732,8h4.536a5.059,5.059,0,0,0,3.758-1.7C20.506,19.8,22.573,15.281,19.211,12.32ZM17,7a2.009,2.009,0,0,1,.654,3.895A11.634,11.634,0,0,1,15.1,8.354,2.023,2.023,0,0,1,17,7ZM11,8V2h1a1,1,0,0,1,1,1V8c-.041,1.955,2.447,3.563,4.031,5H6.969C8.554,11.563,11.041,9.955,11,8Zm5.536,12.967A3.061,3.061,0,0,1,14.268,22H9.732c-2.519.07-5.6-4.759-4.474-7H18.742C19.634,17.2,17.948,19.345,16.536,20.967Z"/>
  </symbol>
  <symbol id="fat" viewBox="0 0 24 24">
    <path d="m23,16V7c0-2.757-2.243-5-5-5H6C3.243,2,1,4.243,1,7v9c-.553,0-1,.447-1,1s.447,1,1,1h.051c.252,2.244,2.139,4,4.449,4h13c2.31,0,4.197-1.756,4.449-4h.051c.553,0,1-.447,1-1s-.447-1-1-1Zm-2-9v9h-3V7c0-1.13-.391-2.162-1.026-3h1.026c1.654,0,3,1.346,3,3Zm-15-3h7c1.654,0,3,1.346,3,3v9H3V7c0-1.654,1.346-3,3-3Zm12.5,16H5.5c-1.208,0-2.217-.86-2.449-2h17.899c-.232,1.14-1.242,2-2.449,2Z"/>
  </symbol>
  <symbol id="mushroom" viewBox="0 0 24 24">
    <path d="m23.925,9.367C22.665,3.939,17.649,0,12,0,6,0,1.301,4.088.075,9.368c-.201.864.006,1.766.566,2.471.586.738,1.466,1.161,2.413,1.161h4.872c-.583,2.524-.926,5.585-.926,6.5,0,2.523,2.196,4.5,5,4.5s5-1.977,5-4.5c0-.915-.344-3.976-.926-6.5h4.872c.947,0,1.827-.423,2.413-1.161.561-.705.767-1.606.566-2.472ZM11,2.5c0,1.379-1.122,2.5-2.5,2.5-.925,0-1.739-.504-2.17-1.29,1.362-.897,2.945-1.476,4.621-1.65.026.145.048.29.048.44Zm4,17c0,1.425-1.29,2.5-3,2.5s-3-1.075-3-2.5c0-.872.376-4.093.983-6.5h4.033c.607,2.407.983,5.628.983,6.5Zm6.792-8.905c-.205.258-.513.405-.847.405h-8.232c.175-.295.286-.632.286-1,0-1.105-.895-2-2-2s-2,.895-2,2c0,.368.111.705.286,1H3.055c-.334,0-.643-.147-.847-.405-.105-.132-.269-.409-.184-.774.435-1.875,1.414-3.531,2.741-4.836.813,1.239,2.189,2.016,3.735,2.016,2.481,0,4.5-2.019,4.5-4.5,0-.154-.035-.302-.05-.453,4.331.406,8.046,3.548,9.027,7.772.085.366-.079.644-.184.775Zm-3.792-3.095c0,.828-.672,1.5-1.5,1.5s-1.5-.672-1.5-1.5.672-1.5,1.5-1.5,1.5.672,1.5,1.5Z"/>
  </symbol>
  <symbol id="fruit" viewBox="0 0 24 24">
    <path d="M17.246,6.193v0a6.744,6.744,0,0,0,1.737-3.94A2,2,0,0,0,16.749.016,6.318,6.318,0,0,0,12.133,2.6,8.162,8.162,0,0,0,10.711.271a1,1,0,0,0-1.428,1.4A7.583,7.583,0,0,1,10.942,6H8.5A8.771,8.771,0,0,0,0,15c-.161,5.6,5.644,10.773,10.75,8.385a2.4,2.4,0,0,1,2.605.019A4.444,4.444,0,0,0,15.5,24C25.764,23.716,27.066,8.582,17.246,6.193ZM14.223,3.168A4.783,4.783,0,0,1,17,2v0a4.8,4.8,0,0,1-1.167,2.772,4.793,4.793,0,0,1-2.778,1.168A4.785,4.785,0,0,1,14.223,3.168ZM15.5,22a2.542,2.542,0,0,1-1.244-.381A4.62,4.62,0,0,0,12,21a4.527,4.527,0,0,0-2.137.593C6.005,23.261,1.9,19.141,2,15A6.772,6.772,0,0,1,8.5,8h7C24.1,8.321,24.1,21.682,15.5,22Z"/>
  </symbol>
  <symbol id="cereal" viewBox="0 0 24 24">
    <path d="M21.832,7.793C23.125,6.5,23.71,4.127,23.974,2.366A2.068,2.068,0,0,0,21.632.024c-1.984.331-4.7.912-5.865,2.712-2.167-3.775-4.828-.624-5.591,2.416-2.314-.645-3.331,2.018-4,4C3.718,8.322,2.094,12.29,2,14.5a7.625,7.625,0,0,0,1.649,4.437L.291,22.293a1,1,0,0,0,1.414,1.414l3.356-3.356A7.628,7.628,0,0,0,9.5,22c2.168-.079,6.251-1.764,5.371-4.181,1.925-.654,4.709-1.738,4-4,3.049-.794,6.211-3.416,2.388-5.589a3.067,3.067,0,0,0,.573-.437ZM17.618,3.579A7.872,7.872,0,0,1,22,2.07c-.646,3.757-1.289,5.265-4.971,4.9C16.935,5.711,17.051,4.147,17.618,3.579ZM13.492,3c1.129,1.215,2.137,3.849.955,5.144L12.923,9.663A7.868,7.868,0,0,0,12,7.127,6.055,6.055,0,0,1,13.492,3Zm-4,4c1.128,1.215,2.136,3.848.954,5.144L8.923,13.663A7.876,7.876,0,0,0,8,11.127,6.05,6.05,0,0,1,9.492,7Zm-4,4c1.127,1.214,2.136,3.848.955,5.143L5.08,17.505A4.947,4.947,0,0,1,5.491,11ZM9.5,20a5.482,5.482,0,0,1-3.005-1.081l1.365-1.365c1.3-1.184,3.929-.168,5.146.938A6.181,6.181,0,0,1,9.5,20Zm4-4c-.134,0-.553-.011-.631,0a7.866,7.866,0,0,0-2.532-.922l1.524-1.523c1.294-1.184,3.928-.167,5.145.938A6.181,6.181,0,0,1,13.5,16Zm4-4c-.134,0-.553-.01-.63,0a7.873,7.873,0,0,0-2.533-.923l1.524-1.523c1.294-1.183,3.928-.167,5.145.938A6.181,6.181,0,0,1,17.5,12Z"/>
  </symbol>
  <symbol id="seafood" viewBox="0 0 24 24">
    <path d="M14,4a1,1,0,0,1,2,0A1,1,0,0,1,14,4ZM24,21a3,3,0,0,1-3,3H12C5.427,24.157-.159,18.292,0,11.775A12.247,12.247,0,0,1,12.365,0L23,.023a1,1,0,0,1,0,2l-1.065,0A7.889,7.889,0,0,1,13.815,9a6.973,6.973,0,0,0-4.021,1.278A2.876,2.876,0,0,0,12,11a1,1,0,0,1,0,2,4.736,4.736,0,0,1-3.653-1.349A6.325,6.325,0,0,0,7.2,13.944,3.683,3.683,0,0,0,10,15a1,1,0,0,1,1,1c-.163,1.87-3.22.675-3.943.307A6.516,6.516,0,0,0,13.5,22c1.309-1.023,5.442-4,7.5-4A3,3,0,0,1,24,21ZM11,4.5A2.589,2.589,0,0,0,14,7a6.011,6.011,0,0,0,5.915-4.983L13.476,2A2.5,2.5,0,0,0,11,4.5ZM4.5,5.511a4.081,4.081,0,0,0,3.625,3.53A8.978,8.978,0,0,1,10.346,7.7a4.478,4.478,0,0,1-.795-5.316A10.5,10.5,0,0,0,4.5,5.511ZM6.539,20.382a8.337,8.337,0,0,1-1.514-5.4,5.271,5.271,0,0,1-2.677-.367A10.037,10.037,0,0,0,6.539,20.382Zm0-9.649a6.151,6.151,0,0,1-3.479-3.1A9.557,9.557,0,0,0,2,11.793c.231.438,1.081,1.58,3.425,1.114A8.356,8.356,0,0,1,6.542,10.733ZM22,21c-.4-2.2-2.947-.233-4.95,1H21A1,1,0,0,0,22,21Z"/>
  </symbol>
  <symbol id="liquid" viewBox="0 0 24 24">
    <path d="M14,24a5.953,5.953,0,0,1-4.242-1.759,6.029,6.029,0,0,1,0-8.487L14,9.253l4.263,4.519a6.032,6.032,0,0,1-.021,8.466h0A5.953,5.953,0,0,1,14,24Zm0-11.829-2.808,2.977a4.017,4.017,0,0,0-.02,5.679,4.093,4.093,0,0,0,5.656,0h0a4.02,4.02,0,0,0,0-5.658Zm-9-.175a4.964,4.964,0,0,1-3.535-1.465,5.024,5.024,0,0,1,0-7.072L5,0,8.527,3.448a5.023,5.023,0,0,1,.008,7.08A4.961,4.961,0,0,1,5,11.993Zm0-9.2L2.871,4.878A3,3,0,0,0,7.12,9.113h0a3.014,3.014,0,0,0,0-4.243Zm15,7.2A3.974,3.974,0,0,1,17.172,8.82a4.019,4.019,0,0,1,0-5.657L19.982.039,22.86,3.2a4.021,4.021,0,0,1-.032,5.624h0A3.974,3.974,0,0,1,20,9.993Zm-.008-6.975-1.37,1.521a2,2,0,0,0,2.792,2.867h0a2.01,2.01,0,0,0,0-2.829Z"/>
  </symbol>
</svg>
