<svg xmlns="http://www.w3.org/2000/svg">
  <symbol id="home" viewBox="0 0 24 24">
    <path d="M10 20v-6h4v6h5v-8h3L12 3 2 12h3v8z"/>
  </symbol>
  <symbol id="user" viewBox="0 0 24 24">
    <path d="M12 2a10 10 0 1 0 10 10A10 10 0 0 0 12 2zm0 18c-2.67 0-8 1.34-8 4v2h16v-2c0-2.66-5.33-4-8-4z"/>
  </symbol>
  <symbol id="potato" viewBox="0 0 24 24">
    <path d="m20.568,1.105c-2.353-1.502-5.394-1.492-7.747.022-1.086.698-1.936,1.614-2.524,2.72-.762,1.427-1.898,2.358-3.201,2.621-2.438.493-4.504,1.947-5.817,4.096-2.126,3.481-1.533,8.075,1.41,10.925,1.667,1.614,3.861,2.504,6.177,2.504,8.2,0,15.128-7.648,15.128-16.703,0-2.504-1.28-4.816-3.425-6.186Zm-11.703,20.888c-1.794,0-3.493-.689-4.786-1.941-2.276-2.204-2.736-5.756-1.094-8.445,1.02-1.668,2.62-2.797,4.507-3.179,1.898-.383,3.521-1.676,4.569-3.64.427-.801,1.046-1.467,1.842-1.979.843-.542,1.829-.813,2.814-.813.974,0,1.945.265,2.774.794,1.589,1.015,2.501,2.655,2.501,4.5,0,7.969-6.012,14.703-13.128,14.703Zm9.135-14.493c0,.828-.672,1.5-1.5,1.5s-1.5-.672-1.5-1.5.672-1.5,1.5-1.5,1.5.672,1.5,1.5Zm-9,7c0,.828-.672,1.5-1.5,1.5s-1.5-.672-1.5-1.5.672-1.5,1.5-1.5,1.5.672,1.5,1.5Zm9-1c0,.828-.672,1.5-1.5,1.5s-1.5-.672-1.5-1.5.672-1.5,1.5-1.5,1.5.672,1.5,1.5Z"/>
  </symbol>
  <symbol id="veal" viewBox="0 0 24 24">
    <path d="M17.5,24a5.772,5.772,0,0,1-4.719-2.238A4.341,4.341,0,0,0,9,20c-4.794,0-9-4.673-9-10A10.011,10.011,0,0,1,10,0c9.772,0,14,11.588,14,17.5A6.508,6.508,0,0,1,17.5,24ZM10,2C-.468,2.379-.38,17.105,9,18a6.3,6.3,0,0,1,5.242,2.4C16.578,23.651,22.1,21.573,22,17.5,22,12.938,18.547,2,10,2ZM6.707,13.707l7-7a1,1,0,0,0-1.414-1.414l-7,7A1,1,0,0,0,6.707,13.707Zm4,2,6-6a1,1,0,0,0-1.414-1.414l-6,6A1,1,0,0,0,10.707,15.707Zm4,2,4-4a1,1,0,0,0-1.414-1.414l-4,4A1,1,0,0,0,14.707,17.707Zm4,2,1-1a1,1,0,0,0-1.414-1.414l-1,1A1,1,0,0,0,18.707,19.707Zm-13-11,3-3A1,1,0,0,0,7.293,4.293l-3,3A1,1,0,0,0,5.707,8.707Z"/>
  </symbol>
</svg>
